<?xml version="1.0" encoding="UTF-8"?>
<svg width="40px" height="40px" viewBox="0 0 40 40" version="1.1" xmlns="http://www.w3.org/2000/svg" xmlns:xlink="http://www.w3.org/1999/xlink">
    <title>Artboard</title>
    <g id="Artboard" stroke="none" stroke-width="1" fill="none" fill-rule="evenodd">
        <g id="logo" transform="translate(4.000000, 4.000000)" fill-rule="nonzero">
            <path d="M21.3333333,16.4868688 C21.3333333,15.693573 20.7300429,15.1774208 20.2176777,15.5321991 L11.0112168,21.9067182 C10.9070557,21.978823 10.7938788,22.014229 10.6805101,22.0172453 C10.557678,22.0202616 10.4345901,21.984712 10.3217968,21.9067182 L1.11533593,15.5321991 C0.602970694,15.1774208 0,15.693573 0,16.4868688 L0,24.0806332 C0,24.4849656 0.164969713,24.8545383 0.425915991,25.0353029 L10.3217968,31.8872645 C10.5386873,32.0375785 10.7941985,32.0375785 11.0112168,31.8872645 L20.9070976,25.0353029 C21.1682357,24.8545383 21.3333333,24.4849656 21.3333333,24.0806332" id="Path" fill="#06B0AA"></path>
            <path d="M10.6666667,15.5129163 C10.6666667,16.3064985 11.2696319,16.8226501 11.7819926,16.4677285 L20.9883707,10.0930729 C21.0927227,10.0209683 21.2058986,9.98549048 21.3192663,9.9826896 C21.4420333,9.97967327 21.5651201,10.0151511 21.6779763,10.0930729 L30.8842265,16.4677285 C31.3970347,16.8226501 32,16.3064985 32,15.5129163 L32,7.91930404 C32,7.51504392 31.8350318,7.14537825 31.5735124,6.96462823 L21.6779763,0.112518395 C21.4609599,-0.0375061316 21.2055149,-0.0375061316 20.9884346,0.112518395 L11.0927707,6.96472877 C10.8316349,7.14547879 10.6666667,7.51511574 10.6666667,7.91937585" id="Path" fill="#EFA200"></path>
        </g>
    </g>
</svg>