<svg width="706" height="828" viewBox="0 0 706 828" fill="none" xmlns="http://www.w3.org/2000/svg">
<path fill-rule="evenodd" clip-rule="evenodd" d="M313.492 303.995C305.751 291.596 317.009 277.002 334.319 277.002L499.949 277C508.766 277 516.83 280.991 520.772 287.31L670.233 526.779C673.506 532.031 673.506 538.214 670.233 543.466L520.774 782.935C516.833 789.254 508.769 793.245 499.951 793.245L334.319 793.245C317.009 793.245 305.751 778.655 313.492 766.25L452.538 543.469C454.238 540.736 455.013 537.757 454.946 534.789C454.883 532.044 454.11 529.307 452.538 526.782L313.492 303.995ZM411.196 61.9948C418.936 49.5955 407.679 35.0025 390.368 35.0025L224.739 35C215.922 35 207.857 38.991 203.916 45.3103L54.4549 284.779C51.1818 290.031 51.1818 296.214 54.4549 301.466L203.913 540.935C207.855 547.254 215.919 551.245 224.736 551.245L390.368 551.245C407.679 551.245 418.936 536.655 411.196 524.25L272.15 301.469C270.45 298.736 269.675 295.757 269.742 292.788C269.804 290.044 270.577 287.307 272.15 284.782L411.196 61.9948Z" fill="#008996"/>
</svg>
