<svg width="179" height="79" viewBox="0 0 179 79" fill="none" xmlns="http://www.w3.org/2000/svg">
<path d="M7.05018 78.3431L0.0160153 59.0916C-0.0465521 58.9202 0.08198 58.7393 0.266427 58.7393H5.33708C5.45344 58.7393 5.5562 58.8138 5.59117 58.9234L8.80674 69.0369C9.33431 70.7092 9.86104 72.4567 10.3501 74.1671H11.1411C11.6302 72.4568 12.1569 70.7093 12.7213 69.0369L15.9369 58.9234C15.9717 58.8138 16.0746 58.7393 16.191 58.7393H21.0743C21.2588 58.7393 21.3875 58.9202 21.3248 59.0916L14.2907 78.3432C14.2527 78.4476 14.1524 78.5169 14.0403 78.5169H7.30087C7.18862 78.5169 7.08826 78.4473 7.05018 78.3431Z" fill="#008996"/>
<path d="M23.7316 58.7389H39.1951C39.3422 58.7389 39.4614 58.8566 39.4614 59.0019V62.8248C39.4614 62.9701 39.3422 63.0878 39.1951 63.0878H29.0007C28.8536 63.0878 28.7344 63.2056 28.7344 63.3509V66.4685C28.7344 66.6138 28.8536 66.7315 29.0007 66.7315H38.3666C38.5136 66.7315 38.6328 66.8492 38.6328 66.9945V70.0741C38.6328 70.2194 38.5136 70.3372 38.3666 70.3372H29.0007C28.8536 70.3372 28.7344 70.4549 28.7344 70.6002V73.9036C28.7344 74.0489 28.8536 74.1666 29.0007 74.1666H39.1951C39.3422 74.1666 39.4614 74.2844 39.4614 74.4297V78.2534C39.4614 78.3987 39.3422 78.5164 39.1951 78.5164H23.7316C23.5845 78.5164 23.4653 78.3987 23.4653 78.2534V59.0018C23.4653 58.8565 23.5845 58.7389 23.7316 58.7389Z" fill="#008996"/>
<path d="M42.018 58.7393H58.5725C58.7196 58.7393 58.8387 58.857 58.8387 59.0023V62.8252C58.8387 62.9705 58.7196 63.0882 58.5725 63.0882H53.1965C53.0494 63.0882 52.9302 63.2059 52.9302 63.3512V78.2539C52.9302 78.3992 52.811 78.5169 52.664 78.5169H47.9267C47.7796 78.5169 47.6604 78.3992 47.6604 78.2539V63.3512C47.6604 63.2059 47.5412 63.0882 47.3941 63.0882H42.0182C41.8711 63.0882 41.7519 62.9705 41.7519 62.8252V59.0023C41.7519 58.857 41.8709 58.7393 42.018 58.7393Z" fill="#008996"/>
<path d="M71.9036 74.353H64.3523C64.2367 74.353 64.1342 74.4266 64.0988 74.5354L62.8623 78.3344C62.8269 78.4432 62.7244 78.5169 62.6088 78.5169H57.7625C57.5781 78.5169 57.4494 78.336 57.5121 78.1646L64.5461 58.9129C64.5842 58.8086 64.6844 58.7393 64.7965 58.7393H71.6862C71.7986 58.7393 71.8988 58.8089 71.9367 58.9133L78.9342 78.165C78.9965 78.3364 78.868 78.5169 78.6837 78.5169H73.6127C73.4962 78.5169 73.3933 78.4421 73.3586 78.3323L72.1577 74.5374C72.123 74.4276 72.02 74.353 71.9036 74.353ZM65.7264 70.6729H70.5682C70.7484 70.6729 70.8765 70.4998 70.822 70.3302L70.1422 68.2185C69.5778 66.509 69.0511 64.7615 68.5997 63.0882H67.7335C67.2444 64.7613 66.7177 66.509 66.1533 68.2185L65.4729 70.3302C65.4182 70.4998 65.5462 70.6729 65.7264 70.6729Z" fill="#008996"/>
<path d="M80.1791 72.6584L84.6001 71.7715C84.7635 71.7388 84.9178 71.8437 84.9617 72.0025C85.5314 74.0666 87.218 74.9852 89.5578 74.9852C91.7784 74.9852 92.8687 74.3525 92.8687 73.1633C92.8687 71.8989 91.9657 71.1928 88.0511 70.5982C82.2554 69.7427 80.4494 67.5871 80.4494 64.2779C80.4494 60.4865 83.272 58.2549 89.0677 58.2549C94.6462 58.2549 96.9752 60.5221 97.6628 63.7395C97.6995 63.9109 97.581 64.0813 97.4068 64.1136L92.7746 64.9698C92.6146 64.9994 92.4607 64.8967 92.4157 64.7419C91.9199 63.0342 91.0913 62.1958 88.8042 62.1958C86.6964 62.1958 85.6806 62.8285 85.6806 64.0177C85.6806 65.0583 86.2073 65.8396 90.2715 66.4713C96.8214 67.5871 98.1758 69.9292 98.1758 72.8279C98.1758 76.6946 95.5413 78.9996 89.3317 78.9996C82.7183 78.9635 80.4323 76.2647 79.925 73.0123C79.8994 72.8479 80.0139 72.6915 80.1791 72.6584Z" fill="#008996"/>
<path d="M100.611 72.6584L105.032 71.7715C105.195 71.7388 105.35 71.8437 105.393 72.0025C105.963 74.0666 107.65 74.9852 109.99 74.9852C112.21 74.9852 113.3 74.3525 113.3 73.1633C113.3 71.8989 112.397 71.1928 108.483 70.5982C102.687 69.7427 100.881 67.5871 100.881 64.2779C100.881 60.4865 103.704 58.2549 109.5 58.2549C115.078 58.2549 117.407 60.5221 118.095 63.7395C118.131 63.9109 118.013 64.0813 117.839 64.1136L113.206 64.9698C113.046 64.9994 112.892 64.8967 112.847 64.7419C112.352 63.0342 111.523 62.1958 109.236 62.1958C107.128 62.1958 106.112 62.8285 106.112 64.0177C106.112 65.0583 106.639 65.8396 110.703 66.4713C117.253 67.5871 118.608 69.9292 118.608 72.8279C118.608 76.6946 115.973 78.9996 109.764 78.9996C103.15 78.9635 100.864 76.2647 100.357 73.0123C100.331 72.8479 100.446 72.6915 100.611 72.6584Z" fill="#008996"/>
<path d="M121.955 58.7389H137.419C137.566 58.7389 137.685 58.8566 137.685 59.0019V62.8248C137.685 62.9701 137.566 63.0878 137.419 63.0878H127.224C127.077 63.0878 126.958 63.2056 126.958 63.3509V66.4685C126.958 66.6138 127.077 66.7315 127.224 66.7315H136.59C136.737 66.7315 136.857 66.8492 136.857 66.9945V70.0741C136.857 70.2194 136.737 70.3372 136.59 70.3372H127.224C127.077 70.3372 126.958 70.4549 126.958 70.6002V73.9036C126.958 74.0489 127.077 74.1666 127.224 74.1666H137.419C137.566 74.1666 137.685 74.2844 137.685 74.4297V78.2534C137.685 78.3987 137.566 78.5164 137.419 78.5164H121.955C121.808 78.5164 121.689 78.3987 121.689 78.2534V59.0018C121.689 58.8565 121.808 58.7389 121.955 58.7389Z" fill="#008996"/>
<path d="M140.571 72.6583L144.991 71.7714C145.155 71.7386 145.309 71.8435 145.353 72.0024C145.923 74.0666 147.609 74.9852 149.949 74.9852C152.17 74.9852 153.261 74.3525 153.261 73.1633C153.261 71.8989 152.358 71.1928 148.443 70.5982C142.647 69.7427 140.841 67.5871 140.841 64.2779C140.841 60.4865 143.663 58.2549 149.46 58.2549C155.037 58.2549 157.366 60.5221 158.054 63.7395C158.091 63.9109 157.972 64.0813 157.798 64.1136L153.167 64.9698C153.007 64.9994 152.853 64.8967 152.808 64.742C152.311 63.0342 151.483 62.1958 149.196 62.1958C147.089 62.1958 146.072 62.8285 146.072 64.0177C146.072 65.0583 146.599 65.8396 150.664 66.4713C157.213 67.5871 158.568 69.9292 158.568 72.8279C158.568 76.6946 155.933 78.9996 149.723 78.9996C143.11 78.9635 140.824 76.2647 140.317 73.0123C140.292 72.8479 140.406 72.6914 140.571 72.6583Z" fill="#008996"/>
<path d="M161.003 72.6583L165.423 71.7714C165.587 71.7386 165.741 71.8435 165.785 72.0024C166.355 74.0666 168.041 74.9852 170.381 74.9852C172.601 74.9852 173.692 74.3525 173.692 73.1633C173.692 71.8989 172.789 71.1928 168.875 70.5982C163.079 69.7427 161.272 67.5871 161.272 64.2779C161.272 60.4865 164.095 58.2549 169.892 58.2549C175.469 58.2549 177.798 60.5221 178.486 63.7395C178.522 63.9109 178.404 64.0813 178.23 64.1136L173.598 64.9698C173.438 64.9994 173.284 64.8967 173.239 64.742C172.743 63.0342 171.915 62.1958 169.627 62.1958C167.52 62.1958 166.504 62.8285 166.504 64.0177C166.504 65.0583 167.03 65.8396 171.095 66.4713C177.645 67.5871 179 69.9292 179 72.8279C179 76.6946 176.364 78.9996 170.155 78.9996C163.541 78.9635 161.255 76.2647 160.749 73.0123C160.723 72.8479 160.838 72.6914 161.003 72.6583Z" fill="#008996"/>
<path d="M97.8268 22.9793C97.8268 21.8747 96.8835 21.156 96.0822 21.65L81.684 30.526C81.5211 30.6264 81.3441 30.6757 81.1668 30.6799C80.9747 30.6841 80.7822 30.6346 80.6058 30.526L66.2076 21.65C65.4063 21.156 64.4633 21.8747 64.4633 22.9793V33.553C64.4633 34.116 64.7213 34.6306 65.1294 34.8823L80.6058 44.4231C80.945 44.6324 81.3446 44.6324 81.684 44.4231L97.1604 34.8823C97.5688 34.6306 97.827 34.116 97.827 33.553" fill="#06B0AA"/>
<path d="M81.145 21.6005C81.145 22.7055 82.088 23.4242 82.8893 22.93L97.2875 14.0538C97.4507 13.9534 97.6277 13.904 97.805 13.9001C97.997 13.8959 98.1895 13.9453 98.366 14.0538L112.764 22.93C113.566 23.4242 114.509 22.7055 114.509 21.6005V11.027C114.509 10.4641 114.251 9.94937 113.842 9.69769L98.366 0.156673C98.0266 -0.0522242 97.6271 -0.0522242 97.2876 0.156673L81.8114 9.69783C81.403 9.94951 81.1451 10.4642 81.1451 11.0271" fill="#EFA200"/>
</svg>
